<svg id="visual" viewBox="0 0 900 600" width="900" height="600" xmlns="http://www.w3.org/2000/svg" xmlns:xlink="http://www.w3.org/1999/xlink" version="1.1"><path d="M0 73L82 73L82 61L164 61L164 133L245 133L245 43L327 43L327 73L409 73L409 49L491 49L491 103L573 103L573 73L655 73L655 79L736 79L736 85L818 85L818 55L900 55L900 43L900 0L900 0L818 0L818 0L736 0L736 0L655 0L655 0L573 0L573 0L491 0L491 0L409 0L409 0L327 0L327 0L245 0L245 0L164 0L164 0L82 0L82 0L0 0Z" fill="#003092"></path><path d="M0 175L82 175L82 283L164 283L164 343L245 343L245 169L327 169L327 379L409 379L409 175L491 175L491 277L573 277L573 157L655 157L655 205L736 205L736 265L818 265L818 247L900 247L900 175L900 41L900 53L818 53L818 83L736 83L736 77L655 77L655 71L573 71L573 101L491 101L491 47L409 47L409 71L327 71L327 41L245 41L245 131L164 131L164 59L82 59L82 71L0 71Z" fill="#004a9e"></path><path d="M0 295L82 295L82 373L164 373L164 427L245 427L245 313L327 313L327 439L409 439L409 235L491 235L491 355L573 355L573 313L655 313L655 361L736 361L736 421L818 421L818 409L900 409L900 307L900 173L900 245L818 245L818 263L736 263L736 203L655 203L655 155L573 155L573 275L491 275L491 173L409 173L409 377L327 377L327 167L245 167L245 341L164 341L164 281L82 281L82 173L0 173Z" fill="#0062a5"></path><path d="M0 529L82 529L82 505L164 505L164 559L245 559L245 535L327 535L327 559L409 559L409 553L491 553L491 499L573 499L573 541L655 541L655 553L736 553L736 541L818 541L818 529L900 529L900 565L900 305L900 407L818 407L818 419L736 419L736 359L655 359L655 311L573 311L573 353L491 353L491 233L409 233L409 437L327 437L327 311L245 311L245 425L164 425L164 371L82 371L82 293L0 293Z" fill="#0076a5"></path><path d="M0 601L82 601L82 601L164 601L164 601L245 601L245 601L327 601L327 601L409 601L409 601L491 601L491 601L573 601L573 601L655 601L655 601L736 601L736 601L818 601L818 601L900 601L900 601L900 563L900 527L818 527L818 539L736 539L736 551L655 551L655 539L573 539L573 497L491 497L491 551L409 551L409 557L327 557L327 533L245 533L245 557L164 557L164 503L82 503L82 527L0 527Z" fill="#00879e"></path></svg>